<svg width="226" height="71" viewBox="0 0 226 71" fill="none" xmlns="http://www.w3.org/2000/svg">
<path d="M53.32 56.14C52.2933 56.14 51.3733 55.9733 50.56 55.64C49.7467 55.3067 49.0933 54.8133 48.6 54.16C48.12 53.5067 47.8667 52.72 47.84 51.8H51.48C51.5333 52.32 51.7133 52.72 52.02 53C52.3267 53.2667 52.7267 53.4 53.22 53.4C53.7267 53.4 54.1267 53.2867 54.42 53.06C54.7133 52.82 54.86 52.4933 54.86 52.08C54.86 51.7333 54.74 51.4467 54.5 51.22C54.2733 50.9933 53.9867 50.8067 53.64 50.66C53.3067 50.5133 52.8267 50.3467 52.2 50.16C51.2933 49.88 50.5533 49.6 49.98 49.32C49.4067 49.04 48.9133 48.6267 48.5 48.08C48.0867 47.5333 47.88 46.82 47.88 45.94C47.88 44.6333 48.3533 43.6133 49.3 42.88C50.2467 42.1333 51.48 41.76 53 41.76C54.5467 41.76 55.7933 42.1333 56.74 42.88C57.6867 43.6133 58.1933 44.64 58.26 45.96H54.56C54.5333 45.5067 54.3667 45.1533 54.06 44.9C53.7533 44.6333 53.36 44.5 52.88 44.5C52.4667 44.5 52.1333 44.6133 51.88 44.84C51.6267 45.0533 51.5 45.3667 51.5 45.78C51.5 46.2333 51.7133 46.5867 52.14 46.84C52.5667 47.0933 53.2333 47.3667 54.14 47.66C55.0467 47.9667 55.78 48.26 56.34 48.54C56.9133 48.82 57.4067 49.2267 57.82 49.76C58.2333 50.2933 58.44 50.98 58.44 51.82C58.44 52.62 58.2333 53.3467 57.82 54C57.42 54.6533 56.8333 55.1733 56.06 55.56C55.2867 55.9467 54.3733 56.14 53.32 56.14ZM69.2847 53.52H64.0447L63.2047 56H59.6247L64.7047 41.96H68.6647L73.7447 56H70.1247L69.2847 53.52ZM68.4047 50.88L66.6647 45.74L64.9447 50.88H68.4047ZM87.8508 56H84.4308L78.7108 47.34V56H75.2908V41.96H78.7108L84.4308 50.66V41.96H87.8508V56ZM95.4098 56.14C94.3832 56.14 93.4632 55.9733 92.6498 55.64C91.8365 55.3067 91.1832 54.8133 90.6898 54.16C90.2098 53.5067 89.9565 52.72 89.9298 51.8H93.5698C93.6232 52.32 93.8032 52.72 94.1098 53C94.4165 53.2667 94.8165 53.4 95.3098 53.4C95.8165 53.4 96.2165 53.2867 96.5098 53.06C96.8032 52.82 96.9498 52.4933 96.9498 52.08C96.9498 51.7333 96.8298 51.4467 96.5898 51.22C96.3632 50.9933 96.0765 50.8067 95.7298 50.66C95.3965 50.5133 94.9165 50.3467 94.2898 50.16C93.3832 49.88 92.6432 49.6 92.0698 49.32C91.4965 49.04 91.0032 48.6267 90.5898 48.08C90.1765 47.5333 89.9698 46.82 89.9698 45.94C89.9698 44.6333 90.4432 43.6133 91.3898 42.88C92.3365 42.1333 93.5698 41.76 95.0898 41.76C96.6365 41.76 97.8832 42.1333 98.8298 42.88C99.7765 43.6133 100.283 44.64 100.35 45.96H96.6498C96.6232 45.5067 96.4565 45.1533 96.1498 44.9C95.8432 44.6333 95.4498 44.5 94.9698 44.5C94.5565 44.5 94.2232 44.6133 93.9698 44.84C93.7165 45.0533 93.5898 45.3667 93.5898 45.78C93.5898 46.2333 93.8032 46.5867 94.2298 46.84C94.6565 47.0933 95.3232 47.3667 96.2298 47.66C97.1365 47.9667 97.8698 48.26 98.4298 48.54C99.0032 48.82 99.4965 49.2267 99.9098 49.76C100.323 50.2933 100.53 50.98 100.53 51.82C100.53 52.62 100.323 53.3467 99.9098 54C99.5098 54.6533 98.9232 55.1733 98.1498 55.56C97.3765 55.9467 96.4632 56.14 95.4098 56.14ZM117.573 46.48C117.573 47.2933 117.386 48.04 117.013 48.72C116.639 49.3867 116.066 49.9267 115.293 50.34C114.519 50.7533 113.559 50.96 112.413 50.96H110.293V56H106.873V41.96H112.413C113.533 41.96 114.479 42.1533 115.253 42.54C116.026 42.9267 116.606 43.46 116.993 44.14C117.379 44.82 117.573 45.6 117.573 46.48ZM112.153 48.24C112.806 48.24 113.293 48.0867 113.613 47.78C113.933 47.4733 114.093 47.04 114.093 46.48C114.093 45.92 113.933 45.4867 113.613 45.18C113.293 44.8733 112.806 44.72 112.153 44.72H110.293V48.24H112.153ZM122.773 41.2V56H119.353V41.2H122.773ZM124.572 50.4C124.572 49.2533 124.785 48.2467 125.212 47.38C125.652 46.5133 126.245 45.8467 126.992 45.38C127.738 44.9133 128.572 44.68 129.492 44.68C130.278 44.68 130.965 44.84 131.552 45.16C132.152 45.48 132.612 45.9 132.932 46.42V44.84H136.352V56H132.932V54.42C132.598 54.94 132.132 55.36 131.532 55.68C130.945 56 130.258 56.16 129.472 56.16C128.565 56.16 127.738 55.9267 126.992 55.46C126.245 54.98 125.652 54.3067 125.212 53.44C124.785 52.56 124.572 51.5467 124.572 50.4ZM132.932 50.42C132.932 49.5667 132.692 48.8933 132.212 48.4C131.745 47.9067 131.172 47.66 130.492 47.66C129.812 47.66 129.232 47.9067 128.752 48.4C128.285 48.88 128.052 49.5467 128.052 50.4C128.052 51.2533 128.285 51.9333 128.752 52.44C129.232 52.9333 129.812 53.18 130.492 53.18C131.172 53.18 131.745 52.9333 132.212 52.44C132.692 51.9467 132.932 51.2733 132.932 50.42ZM150.226 44.84L143.226 61.3H139.546L142.106 55.62L137.566 44.84H141.386L143.966 51.82L146.526 44.84H150.226ZM155.703 44.68C156.489 44.68 157.176 44.84 157.763 45.16C158.363 45.48 158.823 45.9 159.143 46.42V44.84H162.563V55.98C162.563 57.0067 162.356 57.9333 161.943 58.76C161.543 59.6 160.923 60.2667 160.083 60.76C159.256 61.2533 158.223 61.5 156.983 61.5C155.329 61.5 153.989 61.1067 152.963 60.32C151.936 59.5467 151.349 58.4933 151.203 57.16H154.583C154.689 57.5867 154.943 57.92 155.343 58.16C155.743 58.4133 156.236 58.54 156.823 58.54C157.529 58.54 158.089 58.3333 158.503 57.92C158.929 57.52 159.143 56.8733 159.143 55.98V54.4C158.809 54.92 158.349 55.3467 157.763 55.68C157.176 56 156.489 56.16 155.703 56.16C154.783 56.16 153.949 55.9267 153.203 55.46C152.456 54.98 151.863 54.3067 151.423 53.44C150.996 52.56 150.783 51.5467 150.783 50.4C150.783 49.2533 150.996 48.2467 151.423 47.38C151.863 46.5133 152.456 45.8467 153.203 45.38C153.949 44.9133 154.783 44.68 155.703 44.68ZM159.143 50.42C159.143 49.5667 158.903 48.8933 158.423 48.4C157.956 47.9067 157.383 47.66 156.703 47.66C156.023 47.66 155.443 47.9067 154.963 48.4C154.496 48.88 154.263 49.5467 154.263 50.4C154.263 51.2533 154.496 51.9333 154.963 52.44C155.443 52.9333 156.023 53.18 156.703 53.18C157.383 53.18 157.956 52.9333 158.423 52.44C158.903 51.9467 159.143 51.2733 159.143 50.42ZM168.457 46.7C168.857 46.0867 169.357 45.6067 169.957 45.26C170.557 44.9 171.224 44.72 171.957 44.72V48.34H171.017C170.164 48.34 169.524 48.5267 169.097 48.9C168.67 49.26 168.457 49.9 168.457 50.82V56H165.037V44.84H168.457V46.7ZM178.672 56.16C177.578 56.16 176.592 55.9267 175.712 55.46C174.845 54.9933 174.158 54.3267 173.652 53.46C173.158 52.5933 172.912 51.58 172.912 50.42C172.912 49.2733 173.165 48.2667 173.672 47.4C174.178 46.52 174.872 45.8467 175.752 45.38C176.632 44.9133 177.618 44.68 178.712 44.68C179.805 44.68 180.792 44.9133 181.672 45.38C182.552 45.8467 183.245 46.52 183.752 47.4C184.258 48.2667 184.512 49.2733 184.512 50.42C184.512 51.5667 184.252 52.58 183.732 53.46C183.225 54.3267 182.525 54.9933 181.632 55.46C180.752 55.9267 179.765 56.16 178.672 56.16ZM178.672 53.2C179.325 53.2 179.878 52.96 180.332 52.48C180.798 52 181.032 51.3133 181.032 50.42C181.032 49.5267 180.805 48.84 180.352 48.36C179.912 47.88 179.365 47.64 178.712 47.64C178.045 47.64 177.492 47.88 177.052 48.36C176.612 48.8267 176.392 49.5133 176.392 50.42C176.392 51.3133 176.605 52 177.032 52.48C177.472 52.96 178.018 53.2 178.672 53.2ZM197.346 44.84V56H193.926V54.48C193.579 54.9733 193.106 55.3733 192.506 55.68C191.919 55.9733 191.266 56.12 190.546 56.12C189.693 56.12 188.939 55.9333 188.286 55.56C187.633 55.1733 187.126 54.62 186.766 53.9C186.406 53.18 186.226 52.3333 186.226 51.36V44.84H189.626V50.9C189.626 51.6467 189.819 52.2267 190.206 52.64C190.593 53.0533 191.113 53.26 191.766 53.26C192.433 53.26 192.959 53.0533 193.346 52.64C193.733 52.2267 193.926 51.6467 193.926 50.9V44.84H197.346ZM206.603 44.72C207.909 44.72 208.949 45.1467 209.723 46C210.509 46.84 210.903 48 210.903 49.48V56H207.503V49.94C207.503 49.1933 207.309 48.6133 206.923 48.2C206.536 47.7867 206.016 47.58 205.363 47.58C204.709 47.58 204.189 47.7867 203.803 48.2C203.416 48.6133 203.223 49.1933 203.223 49.94V56H199.803V44.84H203.223V46.32C203.569 45.8267 204.036 45.44 204.623 45.16C205.209 44.8667 205.869 44.72 206.603 44.72ZM212.599 50.4C212.599 49.2533 212.812 48.2467 213.239 47.38C213.679 46.5133 214.272 45.8467 215.019 45.38C215.766 44.9133 216.599 44.68 217.519 44.68C218.252 44.68 218.919 44.8333 219.519 45.14C220.132 45.4467 220.612 45.86 220.959 46.38V41.2H224.379V56H220.959V54.4C220.639 54.9333 220.179 55.36 219.579 55.68C218.992 56 218.306 56.16 217.519 56.16C216.599 56.16 215.766 55.9267 215.019 55.46C214.272 54.98 213.679 54.3067 213.239 53.44C212.812 52.56 212.599 51.5467 212.599 50.4ZM220.959 50.42C220.959 49.5667 220.719 48.8933 220.239 48.4C219.772 47.9067 219.199 47.66 218.519 47.66C217.839 47.66 217.259 47.9067 216.779 48.4C216.312 48.88 216.079 49.5467 216.079 50.4C216.079 51.2533 216.312 51.9333 216.779 52.44C217.259 52.9333 217.839 53.18 218.519 53.18C219.199 53.18 219.772 52.9333 220.239 52.44C220.719 51.9467 220.959 51.2733 220.959 50.42Z" fill="#FAFAFA"/>
<path d="M35.3111 47.1847L35.3553 55.9793C35.3111 56.9074 34.9576 57.8502 34.2505 58.5573C33.5668 59.241 32.6394 59.6251 31.6725 59.6251C30.7056 59.6251 29.7782 59.241 29.0945 58.5573L28.7262 58.189L19.3276 45.8441C17.8197 44.0392 17.0411 41.7359 17.1447 39.3863C17.2483 37.0368 18.2266 34.8108 19.8874 33.1456L33.1456 19.8874C36.6222 16.4108 42.1318 16.234 45.8441 19.3276L58.189 28.7262L58.5573 29.0945C59.241 29.7782 59.6251 30.7056 59.6251 31.6725C59.6251 32.6394 59.241 33.5668 58.5573 34.2505C57.8502 34.9576 56.9074 35.3112 55.9793 35.3554L47.1846 35.3112L35.3111 47.1847ZM22.0971 36.8285L25.0434 39.7748L22.0971 42.721L23.5702 44.1942L26.5165 41.2479L29.4628 44.1942L30.9359 42.721L27.9896 39.7748L30.9359 36.8285L29.4628 35.3554L26.5165 38.3016L23.5702 35.3554L22.0971 36.8285ZM36.0919 22.8337C35.7989 23.1267 35.6343 23.5241 35.6343 23.9385C35.6343 24.3529 35.7989 24.7504 36.0919 25.0434C36.3849 25.3364 36.7824 25.501 37.1968 25.501C37.6112 25.501 38.0086 25.3364 38.3016 25.0434C38.5946 24.7504 38.7593 24.3529 38.7593 23.9385C38.7593 23.5241 38.5946 23.1267 38.3016 22.8337C38.0086 22.5406 37.6112 22.376 37.1968 22.376C36.7824 22.376 36.3849 22.5406 36.0919 22.8337ZM36.0919 27.9897C35.7989 28.2827 35.6343 28.6801 35.6343 29.0945C35.6343 29.5089 35.7989 29.9063 36.0919 30.1994C36.3849 30.4924 36.7824 30.657 37.1968 30.657C37.6112 30.657 38.0086 30.4924 38.3016 30.1994C38.5946 29.9063 38.7593 29.5089 38.7593 29.0945C38.7593 28.6801 38.5946 28.2827 38.3016 27.9897C38.0086 27.6966 37.6112 27.532 37.1968 27.532C36.7824 27.532 36.3849 27.6966 36.0919 27.9897ZM41.2479 22.8337C40.9549 23.1267 40.7902 23.5241 40.7902 23.9385C40.7902 24.3529 40.9549 24.7504 41.2479 25.0434C41.5409 25.3364 41.9383 25.501 42.3527 25.501C42.7671 25.501 43.1646 25.3364 43.4576 25.0434C43.7506 24.7504 43.9152 24.3529 43.9152 23.9385C43.9153 23.5241 43.7506 23.1267 43.4576 22.8337C43.1646 22.5406 42.7672 22.376 42.3528 22.376C41.9383 22.376 41.5409 22.5406 41.2479 22.8337ZM41.2479 27.9897C40.9549 28.2827 40.7902 28.6801 40.7902 29.0945C40.7903 29.5089 40.9549 29.9063 41.2479 30.1994C41.5409 30.4924 41.9383 30.657 42.3527 30.657C42.7671 30.657 43.1646 30.4924 43.4576 30.1994C43.7506 29.9063 43.9152 29.5089 43.9152 29.0945C43.9152 28.6801 43.7506 28.2827 43.4576 27.9897C43.1646 27.6966 42.7672 27.532 42.3527 27.532C41.9383 27.532 41.5409 27.6966 41.2479 27.9897Z" fill="#FDFDFD"/>
</svg>
